HIERARCHY
ROOT Hips
{
	OFFSET 0.000000 0.000000 0.000000
	CHANNELS 6 Xposition Yposition Zposition Zrotation Yrotation Xrotation 
	JOINT LowerBack
	{
		OFFSET 0.000000 0.000000 0.000000
		CHANNELS 3 Zrotation Yrotation Xrotation
		JOINT Spine
		{
			OFFSET 0.028270 2.035590 -0.193380
			CHANNELS 3 Zrotation Yrotation Xrotation
			JOINT Spine1
			{
				OFFSET 0.056720 2.048850 -0.042750
				CHANNELS 3 Zrotation Yrotation Xrotation
				JOINT Neck
				{
					OFFSET 0.000000 0.000000 0.000000
					CHANNELS 3 Zrotation Yrotation Xrotation
					JOINT Neck1
					{
						OFFSET -0.054170 1.746240 0.172020
						CHANNELS 3 Zrotation Yrotation Xrotation
						JOINT Head
						{
							OFFSET 0.104070 1.761360 -0.123970
							CHANNELS 3 Zrotation Yrotation Xrotation
							End Site
							{
								OFFSET 0.000000 0.000000 0.000000
							}
						}
					}
				}
				JOINT LeftShoulder
				{
					OFFSET 0.000000 0.000000 0.000000
					CHANNELS 3 Zrotation Yrotation Xrotation
					JOINT LeftArm
					{
						OFFSET 3.362410 1.200890 -0.311210
						CHANNELS 3 Zrotation Yrotation Xrotation
						JOINT LeftForeArm
						{
							OFFSET 4.983000 -0.000000 -0.000000
							CHANNELS 3 Zrotation Yrotation Xrotation
							JOINT LeftHand
							{
								OFFSET 3.483560 -0.000000 -0.000000
								CHANNELS 3 Zrotation Yrotation Xrotation
								JOINT LeftFingerBase
								{
									OFFSET 0.000000 0.000000 0.000000
									CHANNELS 3 Zrotation Yrotation Xrotation
									JOINT LeftHandIndex1
									{
										OFFSET 0.715260 -0.000000 -0.000000
										CHANNELS 3 Zrotation Yrotation Xrotation
										End Site
										{
											OFFSET 0.000000 0.000000 0.000000
										}
									}
								}
								JOINT LThumb
								{
									OFFSET 0.000000 0.000000 0.000000
									CHANNELS 3 Zrotation Yrotation Xrotation
									End Site
									{
										OFFSET 0.000000 0.000000 0.000000
									}
								}
							}
						}
					}
				}
				JOINT RightShoulder
				{
					OFFSET 0.000000 0.000000 0.000000
					CHANNELS 3 Zrotation Yrotation Xrotation
					JOINT RightArm
					{
						OFFSET -3.136600 1.374050 -0.404650
						CHANNELS 3 Zrotation Yrotation Xrotation
						JOINT RightForeArm
						{
							OFFSET -5.241900 -0.000000 -0.000000
							CHANNELS 3 Zrotation Yrotation Xrotation
							JOINT RightHand
							{
								OFFSET -3.444170 -0.000000 -0.000000
								CHANNELS 3 Zrotation Yrotation Xrotation
								JOINT RightFingerBase
								{
									OFFSET 0.000000 0.000000 0.000000
									CHANNELS 3 Zrotation Yrotation Xrotation
									JOINT RightHandIndex1
									{
										OFFSET -0.622530 -0.000000 -0.000000
										CHANNELS 3 Zrotation Yrotation Xrotation
										End Site
										{
											OFFSET 0.000000 0.000000 0.000000
										}
									}
								}
								JOINT RThumb
								{
									OFFSET 0.000000 0.000000 0.000000
									CHANNELS 3 Zrotation Yrotation Xrotation
									End Site
									{
										OFFSET 0.000000 0.000000 0.000000
									}
								}
							}
						}
					}
				}
			}
		}
	}
}
}
MOTION
Frames: 14
Frame Time: 0.008333
-11.564307 17.013188 -2.588422 83.369848 88.281814 94.932530 -3.011986 1.022132 -5.372585 -1.765740 1.015529 -3.843498 -7.259224 0.967435 1.222285 12.238452 -7.444216 -8.452294 -3.745291 -0.289083 -0.219499 0.000000 0.000000 0.000000 -3.796365 20.593516 1.334189 -69.833712 16.150341 -9.895506 -3.024723 -34.436079 0.011229 7.914764 -0.447078 -0.026013 -0.099279 -0.068932 -0.000000 0.000000 0.000000 0.000000 0.000000 0.000000 0.000000 19.323526 0.102875 -0.841520 71.196778 17.773003 13.822325 1.841867 54.757311 0.009196 0.101652 7.851803 0.005797 0.041754 -0.300097 -0.000000 0.000000 0.000000 0.000000 0.000000 0.000000 0.000000 
-11.382533 17.028612 -2.583680 84.463888 87.836716 95.792852 -3.416302 0.890456 -5.284465 -1.844516 0.923233 -3.825909 -7.263726 0.874153 1.227603 12.307972 -7.614471 -8.455593 -3.765769 -0.290484 -0.221825 0.000000 0.000000 0.000000 -3.672244 20.344411 1.300459 -69.794848 15.688061 -9.690655 -3.027893 -34.456985 0.010983 7.971690 -0.466190 -0.027707 -0.099154 -0.066342 -0.000000 0.000000 0.000000 0.000000 0.000000 0.000000 0.000000 19.558571 -0.183225 -0.840961 71.567870 17.253073 13.463706 1.877375 53.943428 0.008960 0.011626 7.808285 -0.000718 0.043906 -0.293820 -0.000000 0.000000 0.000000 0.000000 0.000000 0.000000 0.000000 
-11.204249 17.043165 -2.579646 84.680278 87.407333 95.816730 -3.785615 0.755980 -5.207560 -1.912824 0.824412 -3.808718 -7.258788 0.773897 1.235921 12.353025 -7.790206 -8.468160 -3.781970 -0.291435 -0.226468 0.000000 0.000000 0.000000 -3.570503 20.088780 1.268506 -69.777992 15.170805 -9.442067 -3.026016 -34.523342 0.010684 8.044779 -0.482855 -0.029399 -0.098965 -0.063303 -0.000000 0.000000 0.000000 0.000000 0.000000 0.000000 0.000000 19.749497 -0.481603 -0.838094 71.931569 16.753256 13.090556 1.911873 53.105730 0.008677 -0.090004 7.749555 -0.008035 0.046150 -0.287257 -0.000000 0.000000 0.000000 0.000000 0.000000 0.000000 0.000000 
-11.029452 17.056706 -2.576209 84.154072 87.001870 95.141909 -4.113349 0.621408 -5.145459 -1.969809 0.721208 -3.792552 -7.246404 0.668844 1.247624 12.378358 -7.971214 -8.491405 -3.794608 -0.291988 -0.233792 0.000000 0.000000 0.000000 -3.490507 19.833014 1.237844 -69.777957 14.600256 -9.147427 -3.018734 -34.643008 0.010335 8.136703 -0.497092 -0.030990 -0.098742 -0.059837 -0.000000 0.000000 0.000000 0.000000 0.000000 0.000000 0.000000 19.904408 -0.788974 -0.831734 72.279084 16.275072 12.710950 1.945510 52.255446 0.008369 -0.200160 7.677413 -0.015754 0.048464 -0.280505 0.000000 0.000000 0.000000 0.000000 0.000000 0.000000 0.000000 
-10.857997 17.069252 -2.573456 82.970784 86.629209 93.854855 -4.389740 0.489006 -5.100910 -2.013916 0.615102 -3.777922 -7.228630 0.560535 1.263140 12.388428 -8.156214 -8.526166 -3.804517 -0.292211 -0.243999 0.000000 0.000000 0.000000 -3.434174 19.584840 1.207861 -69.788289 13.975858 -8.806578 -3.006102 -34.818376 0.009935 8.247726 -0.509727 -0.032579 -0.098518 -0.055970 -0.000000 0.000000 0.000000 0.000000 0.000000 0.000000 0.000000 20.031174 -1.101428 -0.821344 72.600976 15.816672 12.332524 1.978338 51.404873 0.008046 -0.315973 7.595074 -0.023773 0.050822 -0.273652 0.000000 0.000000 0.000000 0.000000 0.000000 0.000000 0.000000 
-10.689684 17.081049 -2.571362 81.190760 86.292208 92.011812 -4.609408 0.360195 -5.072838 -2.044449 0.507166 -3.765049 -7.207583 0.450086 1.281210 12.387462 -8.344137 -8.571394 -3.812758 -0.292203 -0.256803 0.000000 0.000000 0.000000 -3.404456 19.342893 1.178056 -69.800250 13.306357 -8.423971 -2.988195 -35.055833 0.009487 8.376028 -0.520716 -0.034166 -0.098316 -0.051756 -0.000000 0.000000 0.000000 0.000000 0.000000 0.000000 0.000000 20.138228 -1.416417 -0.805944 72.887703 15.374285 11.962103 2.010543 50.563240 0.007726 -0.436244 7.507949 -0.031795 0.053222 -0.266785 0.000000 0.000000 0.000000 0.000000 0.000000 0.000000 0.000000 
-10.524228 17.092327 -2.569471 78.882946 85.975333 89.672710 -4.787549 0.234426 -5.056106 -2.064939 0.398262 -3.752894 -7.185358 0.338451 1.302831 12.384232 -8.531265 -8.626929 -3.820623 -0.292050 -0.272400 0.000000 0.000000 0.000000 -3.388966 19.117859 1.148738 -69.809733 12.579904 -8.003786 -2.966822 -35.337278 0.008987 8.517932 -0.535435 -0.036252 -0.098213 -0.047171 -0.000000 0.000000 0.000000 0.000000 0.000000 0.000000 0.000000 20.240929 -1.728822 -0.786380 73.132222 14.940989 11.601373 2.041546 49.742613 0.007408 -0.559143 7.419947 -0.039816 0.055594 -0.259997 0.000000 0.000000 0.000000 0.000000 0.000000 0.000000 0.000000 
-10.361304 17.103568 -2.568264 76.112960 85.687327 86.897760 -4.906797 0.113123 -5.048886 -2.072141 0.288410 -3.741729 -7.163351 0.225760 1.325846 12.377809 -8.715770 -8.689632 -3.828859 -0.291854 -0.289816 0.000000 0.000000 0.000000 -3.399104 18.902564 1.119150 -69.807194 11.810650 -7.553899 -2.942105 -35.667566 0.008436 8.668036 -0.553965 -0.038637 -0.098207 -0.042297 -0.000000 0.000000 0.000000 0.000000 0.000000 0.000000 0.000000 20.339618 -2.037000 -0.762278 73.326318 14.510077 11.254411 2.071721 48.947574 0.007105 -0.683859 7.338242 -0.047838 0.057949 -0.253311 0.000000 0.000000 0.000000 0.000000 0.000000 0.000000 0.000000 
-10.200595 17.115122 -2.567571 72.970972 85.415637 83.767254 -4.975034 -0.004434 -5.045202 -2.067984 0.177666 -3.730628 -7.142697 0.112191 1.349892 12.371705 -8.894850 -8.757150 -3.838267 -0.291690 -0.308535 0.000000 0.000000 0.000000 -3.428794 18.697310 1.089481 -69.788448 10.997132 -7.081308 -2.915537 -36.032962 0.007837 8.820898 -0.580011 -0.041719 -0.098346 -0.037138 -0.000000 0.000000 0.000000 0.000000 0.000000 0.000000 0.000000 20.441159 -2.338684 -0.734454 73.465954 14.073903 10.919715 2.100872 48.182733 0.006825 -0.809039 7.267506 -0.055759 0.060247 -0.246758 0.000000 0.000000 0.000000 0.000000 0.000000 0.000000 0.000000 
-10.041812 17.127339 -2.567407 69.563773 85.151980 80.379223 -4.995587 -0.118829 -5.039733 -2.053461 0.065832 -3.719128 -7.124131 -0.002345 1.373029 12.366159 -9.066316 -8.825426 -3.849427 -0.291642 -0.327487 0.000000 0.000000 0.000000 -3.476400 18.492290 1.059910 -69.749053 10.150552 -6.595253 -2.887917 -36.430263 0.007189 8.970401 -0.614613 -0.045600 -0.098642 -0.031734 -0.000000 0.000000 0.000000 0.000000 0.000000 0.000000 0.000000 20.547224 -2.633151 -0.703116 73.549505 13.625493 10.594788 2.129104 47.448451 0.006574 -0.933104 7.211739 -0.063481 0.062462 -0.240335 0.000000 0.000000 0.000000 0.000000 0.000000 0.000000 0.000000 
-9.884689 17.140482 -2.567888 66.001634 84.891765 76.837085 -4.968596 -0.230822 -5.028564 -2.028838 -0.047711 -3.706554 -7.107648 -0.118304 1.395195 12.359768 -9.228568 -8.891744 -3.862362 -0.291732 -0.345939 0.000000 0.000000 0.000000 -3.538859 18.285602 1.030612 -69.686896 9.270835 -6.099874 -2.860389 -36.847066 0.006495 9.111712 -0.660266 -0.050480 -0.099131 -0.026077 -0.000000 0.000000 0.000000 0.000000 0.000000 0.000000 0.000000 20.655822 -2.920417 -0.669441 73.576746 13.160145 10.274927 2.156520 46.743497 0.006366 -1.053786 7.172580 -0.071103 0.064563 -0.234004 0.000000 0.000000 0.000000 0.000000 0.000000 0.000000 0.000000 
-9.728975 17.154677 -2.569132 62.391911 84.633233 73.243312 -4.893624 -0.341106 -5.009179 -1.994281 -0.163562 -3.692990 -7.093001 -0.236191 1.414238 12.348876 -9.380976 -8.951838 -3.877011 -0.292004 -0.362661 0.000000 0.000000 0.000000 -3.614585 18.062435 1.001996 -69.599888 8.374278 -5.602407 -2.833095 -37.285715 0.005758 9.240839 -0.716497 -0.056258 -0.099804 -0.020198 -0.000000 0.000000 0.000000 0.000000 0.000000 0.000000 0.000000 20.761534 -3.202029 -0.633448 73.551670 12.673410 9.953460 2.183585 46.062150 0.006206 -1.168102 7.149882 -0.078326 0.066533 -0.227714 0.000000 0.000000 0.000000 0.000000 0.000000 0.000000 0.000000 
-9.574582 17.169848 -2.571019 58.856922 84.371654 69.714644 -4.779199 -0.451543 -4.977332 -1.951730 -0.282655 -3.676949 -7.079620 -0.356719 1.432828 12.332985 -9.524828 -9.005978 -3.892809 -0.292384 -0.377828 0.000000 0.000000 0.000000 -3.692666 17.832267 0.974434 -69.489952 7.444406 -5.097352 -2.807596 -37.724786 0.004972 9.356210 -0.784928 -0.063134 -0.100733 -0.014016 -0.000000 0.000000 0.000000 0.000000 0.000000 0.000000 0.000000 20.862936 -3.480838 -0.597220 73.477850 12.166719 9.624779 2.210286 45.400993 0.006096 -1.273981 7.140008 -0.085048 0.068348 -0.221398 0.000000 0.000000 0.000000 0.000000 0.000000 0.000000 0.000000 
-9.421313 17.185846 -2.573639 55.466769 84.113539 66.321147 -4.621360 -0.562932 -4.934285 -1.900524 -0.406012 -3.659670 -7.066787 -0.480944 1.446861 12.305933 -9.661329 -9.048918 -3.909463 -0.292927 -0.389820 0.000000 0.000000 0.000000 -3.773716 17.567165 0.948596 -69.354650 6.516299 -4.595045 -2.782527 -38.186678 0.004142 9.456777 -0.861216 -0.070708 -0.101864 -0.007589 -0.000000 0.000000 0.000000 0.000000 0.000000 0.000000 0.000000 20.950157 -3.760620 -0.559415 73.363979 11.638373 9.279675 2.237507 44.750452 0.006044 -1.367618 7.138425 -0.091172 0.070006 -0.214992 -0.000000 0.000000 0.000000 0.000000 0.000000 0.000000 0.000000 
